<mxfile><diagram id="9F_h-lxKkb5OcUolLcwI" name="Page-1"><mxGraphModel dx="1045" dy="784" grid="1" gridSize="10" guides="1" tooltips="1" connect="1" arrows="1" fold="1" page="1" pageScale="1" pageWidth="850" pageHeight="1100" math="0" shadow="0"><root><mxCell id="0"/><mxCell id="1" parent="0"/><mxCell id="2" value="LIBRARY" style="rounded=1;whiteSpace=wrap;html=1;" vertex="1" parent="1"><mxGeometry x="305" y="90" width="120" height="60" as="geometry"/></mxCell><mxCell id="5" value="" style="html=1;" edge="1" parent="1" source="4" target="2"><mxGeometry relative="1" as="geometry"/></mxCell><mxCell id="7" style="edgeStyle=none;html=1;exitX=0.5;exitY=1;exitDx=0;exitDy=0;entryX=0.5;entryY=0;entryDx=0;entryDy=0;" edge="1" parent="1" source="4" target="6"><mxGeometry relative="1" as="geometry"/></mxCell><mxCell id="4" value="REGİSTER/LOGİN" style="rounded=0;whiteSpace=wrap;html=1;" vertex="1" parent="1"><mxGeometry x="305" y="230" width="120" height="60" as="geometry"/></mxCell><mxCell id="10" value="" style="edgeStyle=none;html=1;" edge="1" parent="1" source="6" target="9"><mxGeometry relative="1" as="geometry"/></mxCell><mxCell id="12" value="" style="edgeStyle=none;html=1;" edge="1" parent="1" source="6" target="11"><mxGeometry relative="1" as="geometry"/></mxCell><mxCell id="14" value="" style="edgeStyle=none;html=1;" edge="1" parent="1" source="6" target="13"><mxGeometry relative="1" as="geometry"/></mxCell><mxCell id="15" value="" style="edgeStyle=none;html=1;" edge="1" parent="1" source="6" target="13"><mxGeometry relative="1" as="geometry"/></mxCell><mxCell id="18" value="" style="edgeStyle=none;html=1;" edge="1" parent="1" source="6" target="17"><mxGeometry relative="1" as="geometry"/></mxCell><mxCell id="20" value="" style="edgeStyle=none;html=1;" edge="1" parent="1" source="6" target="19"><mxGeometry relative="1" as="geometry"/></mxCell><mxCell id="6" value="ALL BOOKS" style="rounded=1;whiteSpace=wrap;html=1;" vertex="1" parent="1"><mxGeometry x="305" y="350" width="120" height="60" as="geometry"/></mxCell><mxCell id="9" value="BOOKS İD SHOW" style="whiteSpace=wrap;html=1;rounded=1;" vertex="1" parent="1"><mxGeometry x="500" y="430" width="120" height="60" as="geometry"/></mxCell><mxCell id="11" value="BOOK ADD" style="whiteSpace=wrap;html=1;rounded=1;" vertex="1" parent="1"><mxGeometry x="505" y="250" width="120" height="60" as="geometry"/></mxCell><mxCell id="13" value="BOOK UPDATE" style="whiteSpace=wrap;html=1;rounded=1;" vertex="1" parent="1"><mxGeometry x="520" y="340" width="120" height="60" as="geometry"/></mxCell><mxCell id="17" value="BOOK DELETE" style="whiteSpace=wrap;html=1;rounded=1;" vertex="1" parent="1"><mxGeometry x="400" y="490" width="120" height="60" as="geometry"/></mxCell><mxCell id="22" value="" style="edgeStyle=none;html=1;" edge="1" parent="1" source="19" target="21"><mxGeometry relative="1" as="geometry"/></mxCell><mxCell id="23" value="" style="edgeStyle=none;html=1;" edge="1" parent="1" source="19" target="21"><mxGeometry relative="1" as="geometry"/></mxCell><mxCell id="24" value="" style="edgeStyle=none;html=1;" edge="1" parent="1" source="19" target="21"><mxGeometry relative="1" as="geometry"/></mxCell><mxCell id="25" value="" style="edgeStyle=none;html=1;" edge="1" parent="1" source="19" target="21"><mxGeometry relative="1" as="geometry"/></mxCell><mxCell id="26" value="" style="edgeStyle=none;html=1;" edge="1" parent="1" source="19" target="21"><mxGeometry relative="1" as="geometry"/></mxCell><mxCell id="27" value="" style="edgeStyle=none;html=1;" edge="1" parent="1" source="19" target="21"><mxGeometry relative="1" as="geometry"/></mxCell><mxCell id="19" value="TAKE /LEFT BOOK" style="whiteSpace=wrap;html=1;rounded=1;" vertex="1" parent="1"><mxGeometry x="105" y="350" width="120" height="60" as="geometry"/></mxCell><mxCell id="21" value="USER İD&lt;br&gt;" style="ellipse;whiteSpace=wrap;html=1;rounded=1;" vertex="1" parent="1"><mxGeometry x="125" y="180" width="80" height="80" as="geometry"/></mxCell><mxCell id="29" style="edgeStyle=none;html=1;exitX=0;exitY=1;exitDx=0;exitDy=0;" edge="1" parent="1" source="28" target="19"><mxGeometry relative="1" as="geometry"/></mxCell><mxCell id="28" value="LEFT BOOK" style="ellipse;whiteSpace=wrap;html=1;rounded=1;" vertex="1" parent="1"><mxGeometry x="190" y="200" width="80" height="80" as="geometry"/></mxCell></root></mxGraphModel></diagram></mxfile>